<?xml version="1.0" encoding="iso-8859-1"?>
<!-- Generator: Adobe Illustrator 21.0.2, SVG Export Plug-In . SVG Version: 6.00 Build 0)  -->
<svg version="1.1" xmlns="http://www.w3.org/2000/svg" xmlns:xlink="http://www.w3.org/1999/xlink" x="0px" y="0px"
	 viewBox="0 0 44.772 28.781" style="enable-background:new 0 0 44.772 28.781;" xml:space="preserve">
<g id="Apusana">
	<path d="M22.175,0.065C29.695,0.022,37.194,0.052,44.712,0c0.116,1.966,0.02,3.944,0.046,5.915
		c-7.411,0.077-14.825,0.05-22.241,0.058c-0.117-0.014-0.266,0.033-0.338-0.088C22.145,3.944,22.215,1.999,22.175,0.065z"/>
	<path d="M2.177,0.115c2.924-0.09,5.861-0.018,8.791-0.05c1.862,5.032,3.752,10.053,5.551,15.108
		c0.464,0.017,0.928,0.007,1.392,0.011c-0.083,0.737-0.028,1.479-0.053,2.219c-2.295,0.013-4.589,0.004-6.884,0.014
		c-0.012-0.742-0.014-1.484,0.006-2.226c0.671-0.016,1.343-0.001,2.016-0.014c-0.335-1.023-0.699-2.036-1.049-3.054
		c-2.123-0.05-4.242-0.011-6.365,0.004c-0.393,1.006-0.742,2.029-1.06,3.061c0.687,0.014,1.373-0.006,2.06,0.011
		C6.57,15.94,6.58,16.68,6.579,17.42c-2.192,0.002-4.384,0.019-6.576,0.002c0.002-0.727-0.008-1.455,0.002-2.182
		c0.458-0.004,0.918,0.02,1.374-0.045c1.567-4.307,3.155-8.608,4.804-12.883c-1.337-0.011-2.673-0.001-4.01-0.005
		C2.181,1.578,2.147,0.846,2.177,0.115z M6.44,9.894c1.545-0.037,3.097,0.06,4.638-0.06c-0.774-2.27-1.495-4.559-2.304-6.817
		C7.937,5.288,7.141,7.578,6.44,9.894z"/>
	<path d="M22.203,11.423c7.458-0.059,14.931,0.039,22.381-0.06c0.137-0.014,0.189,0.14,0.175,0.252
		c0.011,1.912,0.006,3.824,0.002,5.736c-7.509,0.102-15.021,0.028-22.531,0.051C22.147,15.411,22.203,13.415,22.203,11.423z"/>
	<path d="M0.007,22.869c14.911-0.014,29.823-0.05,44.733-0.028c0.069,1.952,0.001,3.91,0.03,5.864
		c-14.913,0.098-29.839,0.032-44.756,0.076C-0.003,26.81,0.008,24.839,0.007,22.869z"/>
</g>
<g id="Layer_1">
</g>
</svg>
