<?xml version="1.0" encoding="iso-8859-1"?>
<!-- Generator: Adobe Illustrator 19.2.0, SVG Export Plug-In . SVG Version: 6.00 Build 0)  -->
<svg version="1.1" xmlns="http://www.w3.org/2000/svg" xmlns:xlink="http://www.w3.org/1999/xlink" x="0px" y="0px"
	 viewBox="0 0 70.77 72.321" style="enable-background:new 0 0 70.77 72.321;" xml:space="preserve">
<g id="Fiat_x5F_service_x5F_IT62">
	<path style="fill-rule:evenodd;clip-rule:evenodd;" d="M10.768,62.008c-3.515-3.296-6.032-7.316-8.128-12.013
		c-0.71-1.591-1.132-3.28-1.534-5.163c-0.815-3.82-1.377-8.102-0.971-12.115c0.407-4.021,1.401-7.383,2.709-10.684
		c2.464-6.219,6.584-11.349,11.706-15.08c4.6-3.351,9.734-5.831,16.767-6.696c1.031-0.127,2.202-0.245,3.272-0.255
		c7.565-0.075,12.67,1.979,17.687,4.652c4.78,2.546,8.667,6.448,11.706,10.632c3.194,4.397,5.312,9.616,6.39,15.949
		c1.188,6.983-0.476,14.067-2.454,19.169c-0.986,2.543-2.461,4.955-4.039,7.156c-3.147,4.392-7.025,7.705-11.859,10.48
		c-1.137,0.652-2.419,1.311-3.731,1.84c-3.914,1.579-8.902,2.661-14.364,2.402c-6.7-0.317-12.457-2.636-16.92-5.367
		C14.72,65.518,12.762,63.822,10.768,62.008z M34.129,5.216c0.261-0.407,1.084-1.215,1.073-1.738
		c-0.007-0.369-0.43-0.736-0.767-1.125c-0.363-0.42-0.677-0.709-1.227-0.715c-0.785-0.008-1.739,0.177-2.556,0.307
		c-0.672,0.106-1.381,0.245-2.198,0.409C27.688,2.507,24.587,3,24.621,3.733c0.023,0.497,1.264,0.811,1.84,0.971
		c2.376,0.661,4.074,1.498,6.441,2.096C33.576,6.458,33.702,5.88,34.129,5.216z M37.043,1.995c-0.004-0.407-0.786-0.558-0.767,0.103
		C36.479,2.499,37.046,2.365,37.043,1.995z M42.359,5.574c0.243-0.836,0.455-1.741,0.46-2.607c-0.572-0.727-2.68-0.447-3.169,0.154
		c-0.021,0.862,0.415,1.741,0.716,2.556c0.29,0.783,0.44,1.818,1.176,2.198C41.967,7.249,42.126,6.376,42.359,5.574z M45.732,7.567
		c0.34-0.246,0.668-0.548,1.022-0.817c0.342-0.26,0.796-0.562,0.869-1.023c-0.113-0.739-0.739-0.965-1.125-1.432
		c-0.508-0.314-1.02-1.073-1.738-0.92c-0.69,0.147-0.83,1.97-1.074,2.863c-0.277,1.017-0.714,2.078-0.307,2.658
		C44.308,8.689,45.049,8.063,45.732,7.567z M19.1,5.88c-2.119,1.255-4.242,2.595-5.878,4.141c-0.69,0.792-1.755,1.21-2.096,2.351
		c0.763,0.521,1.842,0.13,2.76,0.051c2.046-0.177,4.048-0.356,5.981-0.562c0.982-0.104,1.987-0.119,2.811-0.46
		c0.259-0.979,0-2.231-0.102-3.425c-0.099-1.153-0.119-2.436-0.614-3.22C20.906,4.709,19.93,5.389,19.1,5.88z M38.167,6.698
		c-0.428-0.522-1.086-1.557-1.738-1.534c-0.553,0.02-1.556,1.466-1.482,1.994c0.091,0.657,1.463,0.852,2.096,1.074
		c0.797,0.279,1.663,0.768,2.402,0.46C39.301,7.872,38.696,7.343,38.167,6.698z M28.71,6.954c-1.206-0.419-3.146-1.345-4.396-1.176
		c-0.351,0.383-0.135,2.004-0.051,2.811c0.114,1.097,0.137,2.099,0.562,2.607c1.127,0.195,2.373-0.119,3.629-0.204
		c1.271-0.087,2.594-0.086,3.731-0.358c0.469-0.345,0.527-1.33,0.409-2.096C31.659,7.771,30.184,7.466,28.71,6.954z M53.145,7.005
		c-0.571-0.382-1.155-0.787-1.789-1.074c-1.863-0.102-0.666,2.077-0.307,2.812c0.04,0.012,0.101,0.001,0.102,0.051
		c1.195,0.032,2.965,0.207,3.579-0.511C54.442,7.625,53.704,7.379,53.145,7.005z M49.055,8.896c0.187-0.415,0.026-0.941-0.256-1.175
		c-0.711-0.151-1.856,0.789-1.84,1.38C47.48,9.396,48.683,9.239,49.055,8.896z M34.18,9.97c0.154,0.729,2.144,0.485,2.556,0
		C36.465,9.15,33.893,8.605,34.18,9.97z M61.732,14.826c-0.999-1.215-1.885-2.239-2.965-3.425c-0.441-0.484-1.237-1.284-1.789-1.431
		c-0.803-0.214-1.495,0.1-2.198,0.153c-1.235,0.094-2.771,0.034-3.578,0.562c-0.223,0.574-0.323,1.5-0.255,2.198
		c0.754,0.657,1.829,0.843,2.811,1.176c2.479,0.84,5.152,1.651,7.566,2.505c0.471,0.167,1.031,0.501,1.533,0.205
		C62.939,15.966,62.209,15.406,61.732,14.826z M47.879,10.686c-0.618,0.048-1.508,0.087-1.584,0.562
		c0.653,0.591,1.592,0.896,2.709,1.023c0.329-0.199,0.457-0.599,0.409-1.176C49.23,10.664,48.51,10.636,47.879,10.686z
		 M38.678,11.554c-0.597,0.049-1.425,0.138-2.249,0.205c-0.708,0.057-1.763,0.092-1.943,0.511c-0.204,0.476,0.158,1.101,0.307,1.432
		c0.174,0.385,0.448,0.93,0.869,0.971c0.404,0.04,0.861-0.333,1.176-0.562c0.346-0.251,0.733-0.517,1.022-0.716
		c0.716-0.493,1.485-0.983,1.84-1.636C39.591,11.401,39.022,11.526,38.678,11.554z M27.892,12.577
		c-1.053,0.132-2.124,0.1-2.914,0.562c-0.218,0.513-0.092,1.061-0.051,1.533c0.044,0.516,0.006,1.183,0.307,1.534
		c0.434,0.507,2.341,0.51,3.271,0.665c1.333,0.222,2.553,0.315,3.578,0.409c0.575,0.052,1.897-1.064,1.942-1.38
		c0.083-0.585-0.556-1.262-0.767-1.789c-0.275-0.686-0.314-1.383-0.767-1.789C30.956,12.27,29.375,12.392,27.892,12.577z
		 M46.244,14.519c0.262,0.374,0.631,1.1,1.176,1.074c0.505-0.024,1.188-1.008,1.073-1.534c-0.103-0.477-2.108-1.072-2.76-1.125
		c-0.174-0.014-0.255,0.169-0.307,0.205C45.507,13.768,45.893,14.018,46.244,14.519z M22.78,13.242
		c-0.29-0.15-0.566-0.063-0.869-0.052c-2.607,0.1-5.683,0.509-8.23,0.818c-0.949,0.115-2.051-0.053-2.505,0.562
		c0.314,0.386,0.87,0.305,1.329,0.358c2.525,0.29,5.145,0.703,7.668,0.92c1.016,0.088,2.11,0.432,3.016,0.051
		C23.385,15.063,23.273,13.723,22.78,13.242z M38.167,15.133c-0.461,0.316-1.06,0.599-1.125,1.125
		c0.151,0.579,1.31,1.544,2.044,1.38c0.56-0.125,0.583-1.136,0.716-1.636c0.17-0.64,0.585-1.382,0.153-1.84
		C39.236,14.233,38.723,14.751,38.167,15.133z M45.119,15.542c-0.397-0.468-0.932-1.294-1.38-0.971
		c0.075,1.085,0.449,2.311,1.125,2.965C46.644,17.388,45.815,16.363,45.119,15.542z M50.538,14.622
		c-0.464,0.078-1.848,2.32-1.84,2.658c0.009,0.404,0.536,0.875,0.869,1.278c0.377,0.456,0.633,0.881,1.073,1.073
		c0.567,0.249,1.66,0.299,2.556,0.409c1.992,0.244,3.42,0.348,5.316,0.613c0.816,0.114,1.951,0.483,2.658,0.256
		c0.44-0.142,1.684-1.542,1.534-2.147c-0.066-0.266-0.751-0.538-1.278-0.716c-2.603-0.88-5.15-1.683-7.617-2.505
		c-1.031-0.344-2.024-0.774-3.067-0.971c-0.058-0.011-0.083,0.048-0.103,0.051C50.606,14.626,50.571,14.616,50.538,14.622z
		 M42.052,15.235c-0.197-0.058-0.236-0.121-0.46-0.051c-0.321,0.788-0.514,1.702-0.614,2.709c0.233,0.677,1.702,0.615,2.045,0.051
		C42.888,16.853,42.451,16.063,42.052,15.235z M23.496,18.046c-0.835-0.487-1.928-0.464-2.965-0.613
		c-1.062-0.153-2.166-0.182-3.271-0.307c-2.319-0.263-5.199-0.761-7.31-0.767c-0.051,0-0.061,0.042-0.102,0.051
		c0.027,0.695,0.903,0.743,1.38,0.92c1.763,0.655,3.567,1.337,5.316,1.942c1.778,0.617,3.559,1.35,5.265,1.942
		c0.592,0.206,1.26,0.505,1.892,0.358C24.044,20.701,23.776,18.946,23.496,18.046z M5.81,19.12c-0.708,1.201-1.232,2.411-1.738,3.63
		c-0.297,0.714-0.677,1.512-0.613,2.147c0.055,0.556,0.513,1.032,0.869,1.534c0.361,0.508,0.581,1.099,1.023,1.38
		c0.468,0.298,1.438,0.487,2.198,0.665c1.703,0.396,2.912,0.725,4.601,1.176c0.778,0.208,1.762,0.605,2.352,0.562
		c0.407-0.029,0.882-0.404,1.226-0.665c2.009-1.514,3.667-2.55,5.572-4.141c0.341-0.285,2.097-1.255,1.993-1.891
		c-0.031-0.189-0.478-0.441-0.767-0.562c-1.037-0.435-2.153-0.743-3.067-1.073c-3.54-1.281-6.744-2.499-10.173-3.629
		c-0.717-0.237-1.57-0.715-2.198-0.613C6.391,17.75,6.147,18.548,5.81,19.12z M27.995,20.449c0.271-0.197,0.649-0.387,1.023-0.664
		c0.22-0.164,0.817-0.591,0.767-0.92c-0.073-0.479-1.241-0.468-1.84-0.562C27,18.153,26.065,17.993,25.49,18.2
		c-0.31,1.017-0.179,2.807,0.358,3.476C26.798,21.587,27.292,20.962,27.995,20.449z M46.908,18.813
		c-0.037,0.301,0.37,0.487,0.613,0.205C47.61,18.399,46.949,18.48,46.908,18.813z M31.471,19.989
		c-0.867,0.625-1.675,1.236-2.607,1.892c-0.447,0.315-1.175,0.682-1.125,1.125c0.047,0.417,0.584,0.526,0.92,0.664
		c2.122,0.876,3.788,1.462,5.827,2.249c0.574,0.222,1.871,0.948,2.505,0.665c0.348-0.156,0.51-0.941,0.614-1.431
		c0.279-1.323,0.471-2.253,0.767-3.425c0.115-0.458,0.45-1.288,0.307-1.687c-0.217-0.604-1.565-0.597-2.556-0.716
		c-1.112-0.133-2.226-0.396-3.118-0.205C32.531,19.222,31.893,19.684,31.471,19.989z M64.749,19.785
		c-0.58-0.109-1.079,0.58-1.125,1.278c0.29,0.413,1.496,0.667,1.891,0.205C65.448,20.652,65.233,19.876,64.749,19.785z
		 M46.653,27.963c-0.679-1.994-1.345-4.132-2.045-5.981c-0.49-1.293-0.667-1.619-2.198-1.789c-0.756-0.084-1.456-0.224-1.942,0
		c-0.572,0.958-0.748,2.162-1.022,3.323c-0.276,1.167-0.662,2.338-0.767,3.578c0.447,0.581,1.25,0.754,1.942,1.023
		c1.444,0.559,2.876,1.115,4.294,1.636c0.713,0.262,1.476,0.721,2.249,0.562C47.465,29.603,46.93,28.777,46.653,27.963z
		 M46.755,23.721c0.917,2.62,1.688,5.197,2.812,7.565c0.713,0.325,1.543,1.033,2.454,0.869c0.761-0.137,1.274-1.434,1.738-1.84
		c0.371-0.729,1.502-1.188,1.483-2.096c-0.014-0.646-0.891-1.31-1.329-1.84c-0.552-0.667-0.939-1.346-1.38-1.789
		c-0.954-0.826-1.78-2.769-3.016-3.322c-0.655-0.293-1.912-0.414-2.914-0.46c-0.227-0.01-0.325,0.137-0.511,0.256
		C45.956,22.012,46.464,22.889,46.755,23.721z M52.736,21.727c-0.141-0.022-0.048,0.191-0.153,0.204
		c0.401,0.961,1.216,1.665,1.84,2.454c0.62,0.784,1.058,1.878,2.096,2.249c0.811-0.302,1.162-1.211,1.687-1.84
		c0.532-0.639,1.21-1.289,1.38-2.096c-0.608-0.681-1.803-0.543-2.862-0.665c-1.277-0.146-2.531-0.429-3.834-0.409
		C52.816,21.637,52.803,21.709,52.736,21.727z M59.432,30.519c1.256,1.475,2.458,2.907,3.731,4.345
		c0.58,0.654,1.265,1.684,1.942,2.096c0.461,0.279,1.104,0.417,1.79,0.665c0.494,0.178,1.41,0.671,1.891,0.46
		c0.638-0.279,0.449-3.045,0.409-3.987c-0.06-1.425-0.305-2.8-0.511-3.935c-0.224-1.235-0.535-2.422-0.869-3.527
		c-0.346-1.146-0.63-2.298-1.227-3.22c-1.113-0.376-2.993-0.579-4.141-0.665c-0.729-0.055-1.118,0.764-1.534,1.227
		c-0.444,0.494-0.752,0.953-1.073,1.38c-0.839,1.118-1.754,1.865-2.096,2.862C58.121,29.086,58.818,29.798,59.432,30.519z
		 M34.231,27.401c-1.713-0.611-3.461-1.157-5.163-1.891c-0.856-0.37-2.126-1.09-2.812-0.818c-0.508,0.291-0.267,1.452-0.153,2.3
		c0.196,1.465,0.213,2.809,0.358,4.192c0.068,0.65,0.079,1.64,0.307,1.994c0.302,0.469,1.719,0.733,2.403,0.92
		c1.836,0.502,3.496,1.022,5.47,1.278c0.762-0.818,0.819-2.124,1.124-3.271c0.311-1.171,0.732-2.328,0.818-3.579
		C36.069,27.814,35.083,27.705,34.231,27.401z M23.547,25.918c-1.641,1.12-3.352,2.203-4.907,3.374
		c-0.515,0.387-1.159,0.752-1.432,1.38c0.355,0.547,1.132,0.565,1.738,0.716c0.651,0.163,1.308,0.349,1.942,0.511
		c1.313,0.336,2.637,0.918,3.936,0.818c0.433-0.973,0.039-2.283-0.102-3.476c-0.145-1.216-0.024-2.601-0.613-3.425
		C23.9,25.829,23.617,25.767,23.547,25.918z M3.611,38.238c1.08-0.738,1.953-1.456,3.067-2.25c0.466-0.332,1.333-0.709,1.38-1.278
		c0.043-0.516-0.528-1.132-0.818-1.534c-0.768-1.061-1.298-1.656-1.994-2.709C4.938,30,4.605,29.327,4.225,29.088
		c-0.291-0.183-1.09-0.398-1.431-0.358c-0.792,0.094-0.831,1.386-0.971,2.249c-0.338,2.069-0.517,4.366-0.409,6.646
		c0.029,0.612,0.016,1.294,0.46,1.534C2.603,39.082,3.105,38.584,3.611,38.238z M38.73,36.603c0.896,0.242,1.871,0.4,2.658,0.715
		c0.85,0.306,1.719,0.406,2.658,0.716c0.639,0.21,2.009,0.796,2.709,0.665c0.57-0.107,1.074-1.063,1.431-1.482
		c0.493-0.579,1.003-0.989,1.176-1.738c-0.323-0.811-0.48-2.367-1.227-2.914c-0.468-0.343-1.588-0.635-2.351-0.92
		c-1.677-0.627-3.238-1.162-4.754-1.789c-0.782-0.324-1.657-0.724-2.505-0.818c-0.587-0.065-0.743,0.989-0.869,1.482
		c-0.434,1.692-0.987,3.628-1.226,5.061C36.902,36.232,37.861,36.367,38.73,36.603z M60.199,33.688
		c-0.788-0.933-1.521-1.737-2.351-2.709c-0.379-0.443-0.801-1.129-1.432-1.124c-0.37,0.003-1.09,0.958-1.431,1.38
		c-0.316,0.391-1.045,1.067-0.92,1.584c0.087,0.361,1.135,0.652,1.584,0.818c1.333,0.493,2.386,0.785,3.578,1.227
		c0.576,0.214,1.159,0.597,1.79,0.409C61.142,34.63,60.581,34.141,60.199,33.688z M8.263,32.104
		c0.323,0.434,0.844,1.526,1.483,1.533c0.515,0.006,1.139-0.626,1.533-0.92c0.356-0.266,1.281-0.762,1.176-1.278
		c-0.096-0.474-1.603-0.622-2.3-0.818c-1.236-0.348-2.195-0.764-2.965-0.409C7.307,31.113,7.817,31.503,8.263,32.104z
		 M14.959,32.053c-0.876,0.289-1.409,0.896-2.198,1.482c-0.636,0.472-1.901,1.106-1.942,1.738c-0.033,0.506,0.728,1.356,1.073,1.84
		c0.878,1.229,1.529,2.245,2.403,3.476c0.312,0.44,0.917,1.357,1.38,1.585c0.613,0.301,1.651,0.344,2.556,0.511
		c1.801,0.333,3.323,0.591,5.214,0.92c0.764,0.133,2.199,0.515,2.607,0.153c0.383-0.339,0.115-1.532,0.051-2.198
		c-0.151-1.586-0.39-3.116-0.511-4.601c-0.054-0.663-0.072-1.835-0.357-2.249c-0.316-0.458-1.634-0.655-2.352-0.818
		c-2.544-0.577-5.271-1.634-7.719-1.892c-0.058-0.006-0.08,0.047-0.102,0.051C15.03,32.059,14.99,32.043,14.959,32.053z
		 M65.771,40.181c-0.521-0.573-1.23-1.566-1.84-1.942c-0.732-0.452-1.817-0.771-2.761-1.074c-1.898-0.61-3.619-1.338-5.419-1.942
		c-0.893-0.3-1.872-0.765-2.862-0.869c-0.573-0.061-1.51,1.126-1.534,1.687c-0.028,0.653,0.471,1.53,0.716,2.249
		c0.224,0.659,0.503,1.677,0.971,2.045c0.345,0.272,1.171,0.411,1.84,0.562c3.998,0.902,7.788,2.22,11.604,3.119
		c0.569,0.133,1.513,0.5,1.84-0.205c0.154-0.75-0.562-1.073-0.818-1.585C66.882,41.695,66.41,40.884,65.771,40.181z M29.835,44.73
		c0.754,0.12,1.661,0.531,2.249,0.307c0.505-0.193,0.615-1.224,0.767-1.789c0.203-0.754,0.357-1.452,0.511-2.044
		c0.367-1.417,0.964-2.831,0.92-4.09c-0.687-0.682-2.02-0.776-3.221-1.125c-1.268-0.368-2.732-0.826-3.783-0.767
		c-0.42,0.557-0.274,1.408-0.205,2.147c0.216,2.286,0.332,4.777,0.767,6.748C28.296,44.52,29.009,44.599,29.835,44.73z
		 M6.372,40.641c1.516,0.254,3.004,0.512,4.549,0.767c0.615,0.101,1.491,0.472,1.892-0.102c-0.263-0.965-0.992-1.689-1.636-2.607
		c-0.248-0.354-0.528-0.802-0.869-1.278c-0.341-0.476-0.805-1.291-1.482-1.022c-0.762,0.302-1.597,1.061-2.403,1.636
		c-0.833,0.595-1.829,1.082-2.198,1.84C4.633,40.452,5.578,40.507,6.372,40.641z M35.407,39.209
		c-0.333,1.429-0.655,2.469-1.022,3.885c-0.172,0.663-0.529,1.634-0.358,2.045c0.165,0.393,0.97,0.48,1.432,0.562
		c1.262,0.225,2.254,0.42,3.373,0.614c0.599,0.104,1.266,0.343,1.738,0.204c0.556-0.164,0.996-1.052,1.33-1.482
		c1.001-1.295,1.536-1.879,2.504-3.118c0.313-0.4,1.238-1.184,1.125-1.738c-0.086-0.418-1.427-0.728-2.096-0.92
		c-1.703-0.489-3.181-0.822-4.703-1.227c-0.742-0.197-1.806-0.659-2.403-0.511C35.677,37.683,35.567,38.521,35.407,39.209z
		 M48.851,39.056c0.278,0.444,1.209,0.701,1.84,0.46c0.145-0.717-0.18-1.38-0.562-1.738C49.319,37.821,49.044,38.398,48.851,39.056z
		 M67.764,39.772c0.01,0.621,0.339,0.922,0.869,1.022C69.423,40.376,68.46,39.308,67.764,39.772z M53.707,46.979
		c-0.51-1.262-0.871-2.441-1.38-3.68c-0.241-0.587-0.424-1.446-0.818-1.738c-0.312-0.232-1.255-0.469-1.789-0.614
		c-0.684-0.185-1.399-0.378-2.096-0.358c-0.521,0.015-1.186,0.998-1.534,1.482c-0.766,1.069-1.628,2.059-2.403,3.016
		c-0.424,0.524-0.997,0.976-1.073,1.636c0.631,0.683,1.713,0.616,2.658,0.818c1.979,0.423,3.963,0.798,5.93,1.125
		c0.96,0.16,2.115,0.528,2.965,0.153C54.372,48.193,53.95,47.582,53.707,46.979z M17.26,47.337
		c-0.296-0.423-0.569-0.861-0.869-1.278c-0.417-0.581-1.24-2.069-1.84-2.402c-0.328-0.182-0.856-0.203-1.38-0.307
		c-2.402-0.478-4.99-0.876-7.31-1.278c-1-0.173-1.963-0.501-2.913-0.562c-0.657-0.042-0.726,0.098-0.971,0.46
		c0.206,0.892,0.112,2.169,0.613,2.862c0.231,0.319,1.177,0.555,1.738,0.716c3.986,1.144,7.811,2.004,11.706,3.016
		c0.612,0.159,1.358,0.599,1.943,0.153C18.016,48.162,17.552,47.754,17.26,47.337z M66.18,45.293
		c-3.387-0.733-6.746-1.759-10.121-2.608c-0.713-0.179-1.474-0.566-2.096-0.357c-0.355,0.606,0.105,1.233,0.307,1.789
		c0.452,1.24,0.824,2.267,1.278,3.527c0.208,0.577,0.417,1.405,0.767,1.687c0.391,0.316,1.437,0.473,2.096,0.409
		c0.775-0.075,1.597-0.503,2.352-0.818c1.555-0.65,3.17-1.144,4.652-1.738c0.766-0.307,1.557-0.609,2.096-1.125
		C67.372,45.491,66.652,45.395,66.18,45.293z M26.768,48.513c-0.075-0.794-0.002-2.063-0.357-2.607
		c-0.223-0.341-1.224-0.534-1.892-0.664c-0.816-0.159-1.521-0.248-2.198-0.358c-1.667-0.27-2.99-0.698-4.396-0.716
		c-1.188-0.014,0.033,1.414,0.307,1.789c0.991,1.361,1.791,2.783,2.863,3.885c0.86,0.313,1.839,0.583,2.811,0.818
		c0.968,0.233,1.966,0.727,2.914,0.46C27.111,50.344,26.845,49.337,26.768,48.513z M28.097,46.315
		c-0.217,0.606,0.012,1.606,0.102,2.556c0.185,1.927,0.038,3.503,1.994,3.373c0.722-0.467,0.796-1.546,1.022-2.453
		c0.235-0.943,0.564-1.953,0.562-2.863C31.161,46.388,28.806,45.809,28.097,46.315z M20.94,57.049
		c0.153-0.263,0.406-0.682,0.715-1.073c0.282-0.357,0.675-0.739,0.665-1.176c-0.015-0.62-0.777-1.333-1.125-1.84
		c-0.387-0.566-0.784-1.387-1.329-1.687c-0.463-0.254-1.262-0.389-1.942-0.562c-4.031-1.026-8.1-2.104-12.013-3.169
		c-0.824-0.224-1.68-0.687-2.3-0.409c-0.39,0.413-0.051,1.031,0.102,1.432c1.247,3.259,2.876,6.508,5.01,8.792
		c1.76,0.497,3.585,0.758,5.418,1.125c1.811,0.362,3.652,0.91,5.572,0.92C20.278,58.653,20.451,57.886,20.94,57.049z M33.464,53.165
		c0.448,0.136,0.958,0.373,1.431,0.255c0.408-0.101,0.86-0.698,1.227-1.125c0.87-1.011,1.272-1.646,2.096-2.607
		c0.311-0.363,1.017-1.008,0.92-1.482c-0.122-0.596-1.58-0.575-2.147-0.664c-1.32-0.208-1.963-0.468-3.118-0.46
		c-0.076,0.026-0.129,0.076-0.205,0.102c-0.64,0.587-0.692,1.639-0.92,2.556c-0.23,0.926-0.606,1.904-0.511,2.862
		C32.457,52.949,32.984,53.019,33.464,53.165z M53.145,50.456c-1.658-0.346-3.304-0.554-5.009-0.869
		c-2.334-0.432-4.793-1.131-6.901-1.125c-1.176,1.152-2.116,2.522-3.221,3.834c-0.293,0.348-1.009,0.975-0.92,1.482
		c0.112,0.638,2.189,0.893,2.812,1.074c1.07,0.311,2.034,0.831,3.067,0.818c1.002-0.013,2.19-0.614,3.118-0.971
		c2.493-0.959,4.994-1.98,7.361-2.965c0.444-0.185,1.147-0.256,1.176-0.818C54.284,50.453,53.646,50.56,53.145,50.456z
		 M65.26,48.819c-1.033,0.445-2.592,0.736-3.067,1.482c0.639,0.639,2.903,0.901,3.782,0.665c0.39-0.666,0.831-1.281,0.92-2.249
		C66.465,48.124,65.855,48.563,65.26,48.819z M61.937,51.938c-1.748-0.296-3.664-1.006-4.55,0.153
		c0.392,2.02,1.277,3.811,1.892,5.623c0.196,0.578,0.283,1.353,0.92,1.636c0.679-0.154,1.13-0.787,1.534-1.278
		c0.887-1.079,1.594-2.171,2.352-3.322c0.379-0.577,0.86-1.227,0.869-1.994C64.382,52.149,63.09,52.133,61.937,51.938z
		 M23.036,52.602c-0.035,0.264,0.39,0.869,0.665,0.972c0.52,0.195,1.182-0.171,1.329-0.716
		C24.899,52.362,23.13,51.878,23.036,52.602z M54.985,52.755c-2.148,0.753-4.579,1.754-6.696,2.556
		c-0.714,0.271-1.65,0.422-1.994,1.125c0.699,0.66,1.788,0.758,2.76,1.023c2.479,0.675,5.078,1.305,7.565,1.942
		c0.457,0.117,1.019,0.476,1.482,0.153c0.22-0.614-0.156-1.225-0.358-1.789c-0.202-0.564-0.462-1.137-0.665-1.687
		c-0.427-1.161-0.702-2.429-1.431-3.323C55.407,52.68,55.129,52.705,54.985,52.755z M29.272,56.334
		c0.491-0.356,0.707-1.435,0.511-2.147C28.528,53.38,28.516,56.006,29.272,56.334z M25.03,55.363
		c-0.054,0.6,0.691,1.216,1.022,1.687c0.454,0.645,0.654,1.356,1.329,1.38c0.471-0.39,0.171-1.287,0.103-1.994
		c-0.074-0.766-0.012-1.646-0.46-1.993C26.108,54.299,25.086,54.73,25.03,55.363z M32.237,56.947
		c0.287-0.349,0.978-0.871,0.92-1.431c-0.056-0.55-1.04-1.083-1.533-0.665c-0.256,0.216-0.38,1.007-0.511,1.534
		c-0.144,0.576-0.433,1.217-0.102,1.635C31.711,57.969,31.833,57.441,32.237,56.947z M37.043,55.976
		c-0.129,0.042-0.162,0.179-0.256,0.256c0.182,0.632,0.403,1.452,1.074,1.533c0.553,0.067,1.795-0.544,1.84-1.022
		C39.156,56.146,38.063,56.097,37.043,55.976z M25.081,58.43c-0.465-0.653-0.929-1.374-1.584-1.84
		c-0.96,0.149-1.924,2.116-1.942,3.118c0.437,0.547,1.494,0.58,2.351,0.767c0.83,0.182,1.893,0.663,2.454,0.103
		C26.053,59.79,25.548,59.086,25.081,58.43z M34.384,56.896c-0.456,0.345-0.718,0.884-1.176,1.227
		c-0.243,0.514-0.954,0.808-0.818,1.534c0.6,0.25,1.223-0.254,1.789-0.46c0.6-0.218,1.342-0.284,1.636-0.817
		C35.702,57.545,35.272,56.788,34.384,56.896z M38.372,61.855c0,0.551-0.144,1.066,0.102,1.431c0.36,0.534,2.262,0.755,3.169,0.972
		c2.483,0.592,4.333,0.965,6.799,1.482c1.038,0.218,2.628,0.758,3.527,0.613c0.539-0.087,1.217-0.64,1.738-0.971
		c1.219-0.775,2.017-1.429,3.118-2.352c0.431-0.361,1.354-0.989,1.278-1.482c-0.068-0.451-0.91-0.527-1.636-0.716
		c-3.323-0.863-6.378-1.555-9.559-2.351c-1.334-0.334-2.62-0.907-3.834-0.971c-1.069-0.057-1.889,0.585-2.812,0.92
		c-0.76,0.276-1.727,0.408-2.045,1.074C38.129,60.142,38.372,60.996,38.372,61.855z M12.455,61.497
		c1.017,1.017,2.066,1.83,3.271,2.761c0.541,0.417,1.29,1.057,1.942,1.073c0.768,0.02,1.614-0.488,2.147-0.92
		c0.164-0.427-0.028-0.906-0.103-1.431c-0.085-0.599,0.029-1.192-0.153-1.534c-0.244-0.458-1.157-0.614-1.789-0.716
		c-2.048-0.331-4.2-0.903-5.981-1.125c-0.364-0.04-0.611,0.036-0.716,0.255C11.27,60.562,11.941,60.983,12.455,61.497z
		 M33.771,60.832c-0.739,0.246-1.629,0.404-1.892,1.023c0.474,0.529,1.387,0.588,2.198,0.767c0.79,0.174,1.713,0.485,2.505,0.255
		c0.541-0.616,0.316-2.239-0.153-2.76C35.417,60.018,34.668,60.534,33.771,60.832z M23.394,63.286
		c0.382-0.147,1.431-0.332,1.329-0.869c-0.082-0.43-2.154-0.751-2.965-0.818c-0.944-0.078-0.807,1.748-0.154,2.096
		C22.34,63.709,22.768,63.527,23.394,63.286z M31.113,64.001c0.179,0.806,0.75,1.4,1.226,2.096c0.381,0.555,0.948,1.742,1.636,1.738
		c0.504-0.003,1.141-0.814,1.432-1.227c0.381-0.542,0.551-1.005,0.716-1.636c-0.383-0.673-1.339-0.647-2.147-0.818
		c-0.827-0.174-1.707-0.367-2.504-0.46C31.294,63.74,31.201,63.868,31.113,64.001z M23.905,64.513
		c-0.738,0.258-1.637,0.504-1.738,0.92c-0.172,0.706,0.791,1.864,1.38,1.84c0.642-0.025,1.135-1.03,1.483-1.482
		c0.48-0.626,0.99-1.01,1.226-1.738C25.631,63.501,24.867,64.177,23.905,64.513z M34.998,69.625c-0.01,1.412,2.07,1.168,3.476,1.074
		c1.838-0.123,3.785-0.56,5.725-1.022c0.793-0.189,1.693-0.4,2.607-0.767c0.635-0.254,2.183-0.777,2.096-1.277
		c-0.072-0.414-1.615-0.648-2.403-0.818c-1.887-0.407-3.652-0.67-5.367-1.176c-0.881-0.259-1.879-0.477-2.76-0.511
		c-0.984-0.038-1.102,1.885-1.738,2.352C36.324,68.397,35.004,68.636,34.998,69.625z M19.765,66.66
		c0.566,0.897,1.639-0.032,0.665-0.562C19.965,66.043,19.697,66.184,19.765,66.66z M32.084,69.011
		c0.087-0.437-0.388-0.89-0.716-1.38c-0.402-0.602-0.635-1.297-1.227-1.176c-0.254,0.819-0.215,2.573,0.307,3.118
		C31.126,69.675,31.99,69.483,32.084,69.011z M24.979,68.5c0.034,0.357,0.423,0.592,0.92,0.664c0.624-0.395,0.951-1.587,0.767-2.454
		C26.063,66.563,24.934,68.039,24.979,68.5z M28.046,69.574c0.06,0.008,0.145-0.009,0.153,0.051
		c0.549,0.036,0.577-0.876,0.256-1.124C27.836,68.369,27.762,69.272,28.046,69.574z"/>
</g>
<g id="Layer_1">
</g>
</svg>
