<?xml version="1.0" encoding="iso-8859-1"?>
<!-- Generator: Adobe Illustrator 19.2.0, SVG Export Plug-In . SVG Version: 6.00 Build 0)  -->
<svg version="1.1" xmlns="http://www.w3.org/2000/svg" xmlns:xlink="http://www.w3.org/1999/xlink" x="0px" y="0px"
	 viewBox="0 0 71.277 70.248" style="enable-background:new 0 0 71.277 70.248;" xml:space="preserve">
<g id="Ikola_x5F_Design">
	<path style="fill-rule:evenodd;clip-rule:evenodd;" d="M57.628,37.358c0.115,1.012,1.009,1.246,1.515,1.868
		c3.42,3.232,7.032,6.578,10.599,9.892c0.507,0.471,1.323,1.09,1.413,1.716c0.22,1.533-0.027,3.226,0,4.846
		c0.066,3.908,0.001,7.909,0,12.163c0,0.868,0.042,1.807-0.303,2.119c-0.373,0.339-2.212,0.202-3.23,0.202
		c-7.619,0-16.319,0.221-23.569-0.051C34.892,69.77,25.628,70.477,17,69.961c-0.954-0.426-1.561-1.284-2.271-1.968
		c-0.714-0.687-1.414-1.376-2.17-2.019c-1.42-1.548-3.207-3.118-4.795-4.644c-0.532-0.511-0.942-1.145-1.463-1.666
		c-1.407-1.406-3.172-3.155-4.744-4.693c-0.517-0.506-1.288-1.062-1.464-1.666c-0.173-0.593-0.05-1.559-0.05-2.422
		c0-4.842,0-9.522,0-14.586c0-0.831-0.057-1.801,0.252-2.17c0.456-0.546,2.091-0.403,3.23-0.404
		c3.184-0.001,5.636,0.051,8.883,0.051c0.526,0,1.149,0.087,1.413-0.354c-0.117-0.853-0.977-1.29-1.514-1.816
		c-1.705-1.672-3.58-3.25-5.249-5.047c-1.019-1.097-2.3-2.1-3.533-3.332c-0.511-0.51-1.137-1.086-1.767-1.665
		c-0.614-0.564-1.389-1.267-1.615-1.969c-0.18-0.559-0.05-1.503-0.05-2.371c-0.001-5.44,0.054-11.223,0.05-16.453
		c0.412-1.075,2.552-0.707,4.189-0.707c3.27,0,6.854,0.15,10.044,0.051c4.305-0.136,8.695,0.124,13.274,0
		c4.168-0.113,8.625,0.05,13.223,0.05c3.338,0.001,6.61,0.051,10.044,0.051c1.046,0,2.747-0.076,3.331,0.101
		c0.905,0.274,1.622,1.183,2.321,1.868c0.751,0.735,1.423,1.474,2.069,2.068c2.788,2.764,5.626,5.479,8.429,8.226
		c0.57,0.616,1.295,1.346,2.069,2.12c0.631,0.631,1.759,1.477,2.019,2.271c0.193,0.592,0.101,1.639,0.101,2.523
		c0,4.458-0.05,8.134-0.05,12.567c0,1.401,0.288,4.325-0.303,4.845c-0.542,0.476-2.305,0.252-3.281,0.252
		c-3.071,0.001-5.795-0.075-8.579-0.051C58.554,37.009,57.942,36.968,57.628,37.358z M21.441,50.48c2.804,0.104,5.168-0.016,8.277,0
		c1.075,0.006,3.396,0.373,4.038-0.201c0.498-0.446,0.303-2.882,0.303-4.038c0-4.288-0.005-8.293,0.05-12.112
		c0.035-2.434,0-5.452,0-8.277c0-1.266-0.112-2.601-0.05-4.139c0.043-1.068-0.2-3.205,0.151-4.037
		c0.519-1.233,2.937-0.867,4.643-0.858c2.905,0.016,5.213,0,8.176,0c1.247,0,3.207,0.331,3.785-0.202
		c0.359-0.33,0.304-2.387,0.303-3.229c-0.002-2.245,0.001-4.395,0-6.611c0-1.26,0.139-2.746-0.252-3.18
		c-0.619-0.687-4.16-0.234-5.603-0.303C43.5,3.206,41.31,3.241,39.459,3.241C27.569,3.242,15.485,3.156,3.827,3.19
		C2.865,3.524,3.173,5.421,3.171,6.672c-0.002,2.396,0.101,4.748,0,6.965c-0.05,1.113-0.12,2.206,0.303,2.977
		c1.165,0.35,2.55,0.202,3.886,0.202c3.453,0,6.779,0.05,10.195,0.051c0.684,0,1.644-0.108,1.968,0.101
		c0.914,0.589,0.556,3.108,0.556,4.644c0,4.343,0.109,8.018,0,12.566c-0.021,0.84,0.067,1.982-0.202,2.322
		c-0.455,0.573-2.699,0.451-3.886,0.403c-3.081-0.123-5.367-0.05-8.428-0.05c-1.18,0-3.518-0.209-4.088,0.252
		c-0.609,0.492-0.403,2.411-0.403,3.432c0,2.803,0,5.044,0,7.57c0,1.191-0.194,2.799,0.101,3.735c0.371,1.178,1.9,2.152,2.776,3.028
		c3,2.999,5.684,6.045,8.731,8.731c0.474,0.152,1.172,1.69,1.918,1.311c0.473-0.24,0.269-2.523,0.303-3.331
		c0.111-2.64,0-4.819,0-7.166c0-1.214-0.048-2.556,0.202-3.433c0.078-0.106,0.182-0.188,0.252-0.303
		C18.476,50.382,19.947,50.425,21.441,50.48z M54.297,6.874c0,3.459,0.048,6.094,0,9.286c-0.016,1.063,0.162,2.898-0.252,3.482
		c-0.354,0.5-1.168,0.454-2.019,0.454c-3.958,0-6.937-0.05-10.599-0.05c-0.944,0-3.446-0.212-3.886,0.354
		c-0.453,0.58-0.202,2.712-0.202,3.937c0,8.626-0.051,16.387-0.05,24.78c0,1.359,0.251,3.948-0.454,4.341
		c-1.34,0.318-2.764,0.104-4.038,0.101c-2.635-0.009-5.484,0-8.378,0c-1.339,0-3.375-0.246-4.037,0.252
		c-0.564,0.425-0.286,2.215-0.303,3.331c-0.036,2.297-0.012,4.445,0,6.713c0.005,1.054-0.18,2.667,0.403,3.079
		c0.409,0.287,1.889,0.111,2.827,0.15c1.039,0.044,2.099,0.051,2.978,0.051c12.953,0.006,26.192,0.176,38.862,0.051
		c1.028-0.011,2.418,0.118,2.775-0.252c0.444-0.461,0.253-2.147,0.253-3.079c0-2.398-0.11-4.396,0-6.763
		c0.042-0.916,0.194-2.472-0.202-2.979c-0.527-0.673-3.006-0.403-4.239-0.403c-3.009,0-5.567-0.115-8.378-0.102
		c-0.988,0.006-3.324,0.307-3.886-0.201c-0.386-0.348-0.303-1.435-0.303-2.17c-0.001-5.223,0-9.785,0-14.839
		c0-0.777-0.128-1.622,0.303-2.221c1.056-0.482,2.521-0.303,3.937-0.303c2.948,0.001,5.492,0.051,8.428,0.051
		c1.174,0,3.386,0.25,3.987-0.253c0.537-0.447,0.386-2.557,0.403-3.734c0.045-2.932-0.127-5.059-0.05-7.822
		c0.034-1.222,0.187-2.819-0.102-3.786c-0.207-0.696-1.044-1.333-1.514-1.816c-1.65-1.698-3.463-3.317-4.946-4.895
		c-2.222-2.135-4.281-4.434-6.712-6.359C54.144,5.289,54.297,6.001,54.297,6.874z M14.88,29.737c0.334,0.335,1.015,1.216,1.564,1.11
		c0.587-0.112,0.455-1.359,0.455-2.22c0-2.734,0.04-5.543-0.051-8.025c-0.393-0.827-1.685-0.605-2.977-0.605
		c-1.854,0-3.514,0.001-5.199,0c-0.875,0-1.887-0.149-2.624,0c-1.414,0.284,0.243,1.532,0.656,1.918
		c0.514,0.479,0.905,0.974,1.312,1.362c1.133,1.08,1.896,1.853,2.726,2.625C12.066,27.215,13.516,28.372,14.88,29.737z
		 M54.852,39.781c-0.084-0.02-0.179,0.054-0.202,0.101c-0.373,0.255-0.189,1.596-0.202,2.271c-0.021,1.085-0.05,2.606-0.05,4.139
		c-0.001,0.873-0.251,3.512,0.151,4.038c0.353,0.461,1.792,0.303,2.675,0.303c2.118-0.001,3.992,0,6.006,0
		c0.999-0.001,2.107,0.194,2.726-0.303c-0.01-0.781-0.748-1.118-1.161-1.515c-0.475-0.456-0.879-0.936-1.362-1.363
		c-1.923-1.678-3.732-3.469-5.653-5.147C56.886,41.758,55.934,40.026,54.852,39.781z"/>
</g>
<g id="Layer_1">
</g>
</svg>
