<?xml version="1.0" standalone="no"?>
<!DOCTYPE svg PUBLIC "-//W3C//DTD SVG 20010904//EN"
 "http://www.w3.org/TR/2001/REC-SVG-20010904/DTD/svg10.dtd">
<svg version="1.0" xmlns="http://www.w3.org/2000/svg"
 width="3464.000000pt" height="3464.000000pt" viewBox="0 0 3464.000000 3464.000000"
 preserveAspectRatio="xMidYMid meet">
<metadata>
Created by potrace 1.14, written by Peter Selinger 2001-2017
</metadata>
<g transform="translate(0.000000,3464.000000) scale(0.100000,-0.100000)"
fill="#000000" stroke="none">
<path d="M0 17320 l0 -17320 17320 0 17320 0 0 17320 0 17320 -17320 0 -17320
0 0 -17320z m6010 1964 c45 -26 71 -65 103 -157 15 -41 42 -102 61 -135 18
-33 44 -91 56 -128 13 -38 39 -100 58 -139 19 -38 45 -103 57 -143 13 -40 40
-97 60 -126 22 -32 44 -81 54 -124 10 -39 32 -94 49 -124 17 -29 38 -82 47
-118 9 -36 36 -98 60 -139 25 -42 49 -98 56 -130 6 -31 23 -78 38 -105 27 -50
90 -106 121 -106 29 0 52 37 70 114 11 49 30 95 53 128 24 36 40 78 52 130 12
59 26 90 55 129 31 41 41 66 50 123 12 69 39 138 81 204 12 19 28 64 36 100 8
40 29 93 52 132 22 37 46 97 56 137 9 40 32 97 50 128 18 30 41 78 50 107 49
156 82 215 138 246 28 15 69 17 322 20 160 2 364 1 454 -3 143 -6 166 -10 183
-27 17 -17 18 -22 5 -41 -14 -21 -32 -27 -131 -42 -51 -8 -161 -110 -176 -164
-14 -51 -14 -2033 1 -2084 10 -39 86 -133 123 -154 12 -7 41 -15 66 -18 68
-10 108 -24 114 -42 11 -27 -3 -51 -36 -62 -39 -14 -1034 -15 -1127 -1 -72 10
-102 30 -85 57 12 19 33 27 117 43 43 9 69 21 97 47 74 66 71 35 73 839 3 794
-3 1054 -23 1096 -25 53 -60 46 -84 -15 -10 -23 -39 -85 -65 -137 -27 -52 -56
-126 -65 -165 -10 -40 -30 -88 -47 -113 -17 -23 -44 -81 -60 -130 -16 -48 -42
-112 -58 -142 -16 -30 -37 -82 -46 -115 -10 -33 -34 -94 -55 -135 -21 -41 -50
-120 -65 -175 -14 -55 -41 -127 -59 -160 -18 -33 -43 -94 -56 -135 -12 -41
-37 -102 -55 -135 -19 -33 -43 -93 -54 -134 -11 -40 -38 -108 -60 -150 -21
-42 -44 -95 -50 -119 -18 -65 -57 -103 -113 -109 -58 -7 -81 14 -104 93 -9 31
-32 82 -51 114 -19 32 -43 86 -53 120 -10 34 -37 89 -58 123 -24 37 -49 94
-61 139 -11 43 -35 100 -51 127 -17 28 -42 83 -55 124 -13 40 -40 99 -59 131
-19 31 -40 80 -46 109 -7 29 -31 91 -55 138 -24 48 -51 111 -60 141 -8 31 -34
86 -57 124 -22 37 -49 97 -58 134 -17 68 -30 97 -61 140 -11 14 -30 58 -43 98
-31 91 -55 125 -113 159 -44 25 -46 26 -59 8 -8 -10 -16 -32 -19 -49 -3 -17
-2 -402 2 -856 l8 -825 27 -45 c33 -56 101 -125 136 -138 15 -6 53 -18 84 -27
69 -19 89 -44 59 -74 -29 -29 -94 -33 -423 -29 -274 3 -297 4 -317 22 -12 11
-21 24 -21 31 0 21 34 44 84 55 63 14 80 24 141 78 87 77 80 -30 80 1147 0
882 -2 1054 -14 1075 -8 14 -34 50 -58 81 -48 62 -54 96 -22 125 26 23 136 30
484 29 214 0 232 -1 265 -21z m4633 3 c26 -8 69 -29 96 -46 30 -19 78 -38 122
-47 48 -10 86 -25 107 -42 19 -15 51 -38 72 -52 128 -86 332 -295 380 -390 12
-25 37 -70 56 -100 19 -32 44 -96 58 -150 13 -52 36 -126 50 -164 37 -96 46
-203 36 -389 -8 -134 -13 -166 -35 -219 -31 -73 -39 -102 -55 -180 -7 -36 -25
-78 -47 -109 -19 -29 -46 -77 -60 -107 -44 -100 -267 -334 -381 -401 -38 -22
-75 -47 -82 -56 -22 -26 -84 -54 -157 -71 -38 -8 -94 -31 -127 -51 -74 -46
-128 -52 -466 -52 -283 -1 -341 6 -430 53 -36 18 -101 42 -145 52 -53 12 -95
30 -125 51 -25 18 -70 46 -100 62 -30 16 -71 44 -91 62 -20 19 -51 48 -70 65
-43 38 -98 100 -130 144 -13 19 -42 56 -65 82 -24 27 -47 67 -54 93 -7 26 -30
72 -52 104 -34 51 -41 73 -59 176 -11 65 -27 143 -34 174 -10 37 -15 107 -15
216 0 210 38 415 100 540 21 44 50 105 63 135 52 117 261 335 402 420 22 13
60 39 84 57 25 18 70 40 100 48 31 9 88 31 128 51 124 60 157 64 538 60 269
-3 350 -7 388 -19z m2074 -65 c30 -16 41 -56 53 -195 11 -112 10 -130 -9 -217
-25 -113 -27 -256 -6 -385 8 -49 15 -107 15 -127 0 -51 57 -222 80 -243 12
-10 35 -18 57 -18 48 0 162 52 205 92 18 17 60 45 93 63 33 17 75 42 93 56 26
20 35 22 47 12 8 -7 15 -20 15 -30 0 -37 28 -78 95 -140 69 -63 89 -91 99
-141 6 -27 16 -38 89 -100 21 -18 46 -48 57 -68 10 -20 30 -47 45 -61 15 -14
43 -49 62 -79 20 -29 70 -91 113 -138 43 -46 89 -105 101 -131 14 -28 59 -82
110 -133 53 -52 96 -104 110 -133 14 -30 31 -51 48 -57 33 -13 168 -153 191
-199 24 -48 12 -76 -37 -89 -84 -21 -219 -33 -302 -27 -80 6 -219 36 -266 58
-29 13 -73 79 -94 141 -27 78 -121 233 -180 297 -74 80 -141 161 -156 190 -7
14 -31 39 -53 57 -30 24 -42 44 -51 80 -9 34 -27 63 -61 99 -26 28 -59 73 -73
101 -47 91 -143 156 -252 171 -42 6 -80 6 -96 0 -27 -9 -49 -44 -49 -78 0 -11
-12 -50 -27 -87 -25 -63 -27 -81 -32 -258 -7 -278 -5 -356 8 -397 11 -34 24
-120 38 -258 8 -81 5 -82 -177 -101 -148 -15 -258 -9 -292 16 -56 41 -68 109
-43 235 19 94 27 281 30 749 2 294 7 547 10 562 4 16 1 62 -5 103 -10 57 -10
97 -1 174 14 114 0 323 -25 401 -27 85 -8 156 51 189 17 9 32 19 35 22 6 6 14
8 90 26 63 15 215 12 247 -4z m3080 -8 c31 -8 63 -20 71 -26 16 -14 12 -74
-11 -133 -18 -47 -22 -276 -13 -620 3 -121 6 -236 6 -256 0 -26 9 -46 35 -76
42 -50 44 -72 7 -115 -72 -84 -67 -55 -64 -448 2 -195 3 -409 2 -474 -1 -112
10 -176 31 -176 15 0 22 -71 9 -95 -29 -55 -349 -82 -470 -39 -67 23 -81 50
-62 119 7 25 12 72 12 104 0 32 7 98 16 147 18 101 23 551 16 1378 -1 43 5
108 13 144 12 57 11 72 -1 109 -16 45 -12 77 12 101 23 23 17 66 -15 96 -56
54 -62 166 -11 220 54 59 268 79 417 40z m5790 12 c21 -8 47 -17 58 -22 11 -4
22 -8 25 -9 3 -1 18 -7 33 -13 16 -7 34 -12 41 -12 7 0 26 -12 41 -26 26 -24
27 -29 22 -84 -4 -32 -14 -77 -23 -100 -15 -37 -15 -52 -4 -126 7 -48 9 -109
5 -142 -4 -33 -9 -288 -11 -568 -6 -631 -6 -552 0 -794 4 -175 8 -220 30 -310
30 -123 32 -160 10 -206 -28 -58 -154 -85 -280 -59 -38 8 -84 17 -102 20 -42
7 -79 31 -87 56 -4 11 -2 59 3 107 5 48 11 101 13 117 1 17 2 62 1 100 -1 39
-1 345 0 680 3 1001 4 971 -22 1035 -16 38 -24 84 -28 151 l-5 97 34 35 c43
46 123 86 171 87 21 0 55 -6 75 -14z m5354 -24 c24 -11 59 -26 77 -33 21 -7
44 -28 59 -52 29 -46 28 -99 -2 -208 -17 -60 -18 -75 -6 -160 10 -71 12 -250
10 -729 -4 -693 0 -799 36 -998 14 -73 25 -147 25 -164 0 -41 -25 -68 -64 -68
-18 0 -56 -6 -86 -14 -112 -28 -165 -29 -217 -5 -58 27 -49 24 -98 34 -60 12
-68 22 -61 75 3 25 8 72 11 105 3 33 12 87 20 120 9 38 15 119 15 220 2 224 2
244 12 580 7 271 4 419 -17 645 -2 25 -9 110 -15 190 -6 80 -15 172 -21 206
-21 141 -6 194 71 238 101 57 159 61 251 18z m-2566 -8 c23 -11 38 -29 54 -69
30 -72 35 -118 22 -185 -37 -182 -37 -193 -6 -353 11 -55 9 -223 -3 -272 -10
-41 -10 -58 2 -95 27 -83 35 -160 20 -202 -26 -73 -35 -198 -40 -533 -4 -319
-1 -392 23 -455 15 -39 31 -148 26 -174 -19 -86 -51 -93 -342 -82 -171 6 -186
25 -155 200 7 39 20 100 29 135 9 36 14 76 11 90 -17 71 -31 543 -21 671 16
196 16 350 2 407 -13 50 -15 96 -10 245 4 129 2 195 -6 223 -7 22 -15 119 -18
216 l-6 176 29 32 c16 18 45 37 64 41 52 14 288 2 325 -16z m-10142 -17 c21
-25 22 -45 1 -86 -16 -33 -59 -61 -93 -61 -20 0 -28 23 -32 95 -4 67 1 73 71
72 22 0 41 -7 53 -20z m3092 12 c91 -15 100 -28 100 -152 0 -56 -3 -122 -7
-147 -9 -57 -19 -158 -22 -235 -2 -33 -11 -87 -21 -120 -16 -56 -16 -63 0
-116 14 -46 15 -63 6 -90 -15 -45 -14 -92 5 -140 15 -36 15 -49 4 -110 -11
-56 -11 -82 -1 -137 14 -70 17 -126 13 -227 -4 -99 5 -627 11 -665 10 -62 17
-215 9 -226 -9 -14 -38 -29 -98 -51 -59 -22 -296 -25 -316 -5 -7 7 -22 12 -34
12 -13 0 -32 12 -44 28 -19 23 -21 35 -17 88 5 55 39 174 57 199 4 6 6 35 4
65 -2 30 -5 196 -7 368 -4 256 -7 319 -20 345 -46 96 -67 146 -67 164 0 11 12
42 26 68 25 43 28 61 35 204 4 86 13 185 18 221 16 101 14 209 -4 275 -9 33
-21 65 -26 71 -5 6 -15 70 -21 142 -17 184 -22 180 212 180 80 0 172 -4 205
-9z m8267 -19 c9 -11 24 -41 34 -66 19 -50 12 -76 -20 -82 -21 -5 -146 116
-146 141 0 40 100 46 132 7z m2442 -52 c14 -6 28 -19 31 -29 6 -18 50 -39 125
-59 29 -8 59 -27 87 -56 24 -24 48 -44 53 -44 4 0 57 -54 117 -120 115 -129
127 -151 158 -290 9 -41 32 -122 52 -180 30 -89 37 -125 45 -250 13 -188 5
-419 -16 -484 -9 -27 -28 -70 -44 -95 -30 -51 -36 -68 -58 -156 -10 -41 -29
-79 -61 -120 -76 -99 -155 -176 -203 -198 -25 -11 -63 -32 -85 -47 -22 -14
-66 -37 -98 -50 -34 -13 -67 -35 -79 -51 -12 -15 -34 -33 -50 -40 -36 -15
-106 -15 -120 -1 -18 18 17 84 73 136 41 39 52 57 73 127 14 45 31 89 39 98
21 25 75 161 86 219 6 29 11 76 11 105 0 47 9 118 42 319 7 43 9 128 4 241
-10 245 -15 292 -41 377 -13 41 -28 98 -35 127 -6 29 -18 57 -26 64 -29 24
-56 70 -60 102 -7 57 -15 87 -28 100 -18 18 -91 127 -110 164 -23 46 -20 61
17 83 37 23 65 25 101 8z m-8619 -45 c14 -15 25 -32 25 -37 0 -5 16 -28 35
-52 47 -57 64 -101 81 -202 11 -67 21 -95 52 -141 21 -32 47 -87 56 -122 10
-35 28 -75 41 -89 34 -38 46 -67 52 -123 6 -70 29 -127 63 -157 21 -18 37 -52
60 -125 17 -55 39 -114 50 -131 10 -18 28 -63 41 -100 13 -38 33 -87 46 -109
49 -87 73 -144 94 -225 13 -48 35 -103 51 -126 16 -22 42 -81 57 -130 23 -74
42 -109 104 -196 83 -116 101 -151 93 -183 -7 -27 -56 -43 -152 -51 -38 -3
-82 -9 -99 -14 -61 -17 -103 -20 -156 -10 -30 6 -69 13 -88 15 -58 8 -71 28
-71 113 0 69 -3 79 -45 154 -50 89 -65 134 -65 195 0 46 -8 57 -76 103 -44 31
-62 66 -49 97 26 64 25 73 -9 111 -46 51 -52 65 -82 188 -35 147 -98 306 -149
379 -23 33 -55 98 -71 145 -32 95 -59 130 -139 185 -30 21 -57 46 -60 56 -7
21 11 93 30 123 16 25 60 137 85 219 26 81 135 267 157 267 7 0 24 -12 38 -27z
m5629 -973 c2 -19 10 -56 16 -81 6 -25 10 -63 8 -85 -3 -34 -6 -39 -31 -42
-36 -4 -91 51 -108 107 -9 32 -8 44 6 75 10 20 31 48 48 62 25 21 32 23 43 12
8 -7 16 -29 18 -48z m-1882 -1172 c-10 -66 -14 -76 -48 -104 -21 -18 -44 -30
-51 -27 -7 3 -13 0 -13 -6 0 -6 -12 -11 -26 -11 -14 0 -23 4 -20 9 3 5 -2 12
-11 15 -10 4 -13 10 -8 14 6 4 16 30 23 57 14 54 35 82 96 127 35 25 41 27 55
14 12 -13 13 -26 3 -88z m2573 23 c-7 -66 -32 -148 -47 -158 -28 -17 -93 -21
-120 -7 -31 16 -33 25 -17 57 30 57 164 181 182 170 5 -3 6 -31 2 -62z m-7313
-48 c16 -40 15 -93 -2 -104 -22 -13 -72 -10 -94 6 -23 18 -16 51 20 94 32 39
61 40 76 4z"/>
<path d="M10072 19189 c-30 -9 -76 -36 -215 -127 -20 -14 -55 -52 -76 -86 -22
-34 -54 -78 -72 -99 -40 -47 -145 -353 -160 -467 -7 -48 -9 -230 -6 -471 4
-433 3 -421 76 -634 17 -49 35 -109 41 -131 6 -23 27 -63 49 -90 21 -27 45
-63 54 -80 28 -54 68 -94 119 -120 27 -14 70 -40 96 -58 26 -19 65 -39 87 -45
55 -15 260 -14 321 2 59 15 183 88 228 133 84 86 146 173 146 208 0 8 16 45
36 83 54 102 63 134 80 282 36 322 37 491 4 951 -13 179 -26 235 -74 308 -19
30 -40 77 -47 104 -8 35 -26 67 -58 104 -25 29 -56 66 -68 81 -19 26 -70 61
-193 131 -41 24 -54 26 -190 29 -80 1 -160 -2 -178 -8z"/>
</g>
</svg>
